<svg xmlns="http://www.w3.org/2000/svg" width="1000" height="520" viewBox="0 0 1000 520">
<style>text{font-family:Arial,sans-serif;fill:#222}.small{font-size:12px}.axis{font-size:13px}.title{font-size:22px;font-weight:bold}.legend{font-size:13px}</style>
<text x="500.0" y="30" text-anchor="middle" class="title">2026 catalog comparison: AI-term penetration by session</text>
<line x1="70" y1="410.0" x2="960" y2="410.0" stroke="#ddd" />
<text x="60" y="414.0" text-anchor="end" class="small">0%</text>
<line x1="70" y1="366.2" x2="960" y2="366.2" stroke="#ddd" />
<text x="60" y="370.2" text-anchor="end" class="small">10%</text>
<line x1="70" y1="322.5" x2="960" y2="322.5" stroke="#ddd" />
<text x="60" y="326.5" text-anchor="end" class="small">20%</text>
<line x1="70" y1="278.8" x2="960" y2="278.8" stroke="#ddd" />
<text x="60" y="282.8" text-anchor="end" class="small">30%</text>
<line x1="70" y1="235.0" x2="960" y2="235.0" stroke="#ddd" />
<text x="60" y="239.0" text-anchor="end" class="small">40%</text>
<line x1="70" y1="191.2" x2="960" y2="191.2" stroke="#ddd" />
<text x="60" y="195.2" text-anchor="end" class="small">50%</text>
<line x1="70" y1="147.5" x2="960" y2="147.5" stroke="#ddd" />
<text x="60" y="151.5" text-anchor="end" class="small">60%</text>
<line x1="70" y1="103.8" x2="960" y2="103.8" stroke="#ddd" />
<text x="60" y="107.8" text-anchor="end" class="small">70%</text>
<line x1="70" y1="60.0" x2="960" y2="60.0" stroke="#ddd" />
<text x="60" y="64.0" text-anchor="end" class="small">80%</text>
<text x="144.16666666666669" y="465" text-anchor="middle" class="axis">AI</text>
<rect x="96.7" y="410.0" width="29.7" height="0.0" fill="#4285F4" rx="2" />
<text x="111.5" y="404.0" text-anchor="middle" class="small">0%</text>
<rect x="132.3" y="152.3" width="29.7" height="257.7" fill="#FF3621" rx="2" />
<text x="147.1" y="146.3" text-anchor="middle" class="small">59%</text>
<rect x="167.9" y="119.1" width="29.7" height="290.9" fill="#29B5E8" rx="2" />
<text x="182.7" y="113.1" text-anchor="middle" class="small">66%</text>
<text x="292.5" y="465" text-anchor="middle" class="axis">Agents</text>
<rect x="245.0" y="410.0" width="29.7" height="0.0" fill="#4285F4" rx="2" />
<text x="259.9" y="404.0" text-anchor="middle" class="small">0%</text>
<rect x="280.6" y="280.1" width="29.7" height="129.9" fill="#FF3621" rx="2" />
<text x="295.5" y="274.1" text-anchor="middle" class="small">30%</text>
<rect x="316.2" y="266.1" width="29.7" height="143.9" fill="#29B5E8" rx="2" />
<text x="331.1" y="260.1" text-anchor="middle" class="small">33%</text>
<text x="440.83333333333337" y="465" text-anchor="middle" class="axis">MCP</text>
<rect x="393.4" y="410.0" width="29.7" height="0.0" fill="#4285F4" rx="2" />
<text x="408.2" y="404.0" text-anchor="middle" class="small">0%</text>
<rect x="429.0" y="390.8" width="29.7" height="19.3" fill="#FF3621" rx="2" />
<text x="443.8" y="384.8" text-anchor="middle" class="small">4%</text>
<rect x="464.6" y="397.8" width="29.7" height="12.2" fill="#29B5E8" rx="2" />
<text x="479.4" y="391.8" text-anchor="middle" class="small">3%</text>
<text x="589.1666666666666" y="465" text-anchor="middle" class="axis">Models</text>
<rect x="541.7" y="410.0" width="29.7" height="0.0" fill="#4285F4" rx="2" />
<text x="556.5" y="404.0" text-anchor="middle" class="small">0%</text>
<rect x="577.3" y="277.0" width="29.7" height="133.0" fill="#FF3621" rx="2" />
<text x="592.1" y="271.0" text-anchor="middle" class="small">30%</text>
<rect x="612.9" y="316.8" width="29.7" height="93.2" fill="#29B5E8" rx="2" />
<text x="627.7" y="310.8" text-anchor="middle" class="small">21%</text>
<text x="737.5" y="465" text-anchor="middle" class="axis">LLMs</text>
<rect x="690.0" y="410.0" width="29.7" height="0.0" fill="#4285F4" rx="2" />
<text x="704.9" y="404.0" text-anchor="middle" class="small">0%</text>
<rect x="725.6" y="374.1" width="29.7" height="35.9" fill="#FF3621" rx="2" />
<text x="740.5" y="368.1" text-anchor="middle" class="small">8%</text>
<rect x="761.2" y="399.1" width="29.7" height="10.9" fill="#29B5E8" rx="2" />
<text x="776.1" y="393.1" text-anchor="middle" class="small">2%</text>
<text x="885.8333333333334" y="465" text-anchor="middle" class="axis">GenAI</text>
<rect x="838.4" y="410.0" width="29.7" height="0.0" fill="#4285F4" rx="2" />
<text x="853.2" y="404.0" text-anchor="middle" class="small">0%</text>
<rect x="874.0" y="365.8" width="29.7" height="44.2" fill="#FF3621" rx="2" />
<text x="888.8" y="359.8" text-anchor="middle" class="small">10%</text>
<rect x="909.6" y="390.8" width="29.7" height="19.3" fill="#29B5E8" rx="2" />
<text x="924.4" y="384.8" text-anchor="middle" class="small">4%</text>
<rect x="70" y="483" width="14" height="14" fill="#4285F4" />
<text x="90" y="495" class="legend">GCP Next 2026</text>
<rect x="290" y="483" width="14" height="14" fill="#FF3621" />
<text x="310" y="495" class="legend">Databricks 2026</text>
<rect x="510" y="483" width="14" height="14" fill="#29B5E8" />
<text x="530" y="495" class="legend">Snowflake 2026</text>
<text transform="translate(18 235.0) rotate(-90)" text-anchor="middle" class="axis">% of sessions mentioning term</text>
</svg>