<svg viewBox="0 0 700 592" xmlns="http://www.w3.org/2000/svg" role="img" aria-labelledby="ttl desc">
<title id="ttl">Snowflake vs Databricks 2026 — agenda share by strategy row</title>
<desc id="desc">Mirrored bar chart. Snowflake share in blue extends left, Databricks share in red extends right, from a center column showing the leader and delta in percentage points for each of ten strategy rows.</desc>
<text x="292" y="34" text-anchor="end" class="th" font-size="15" fill="#185FA5">Snowflake</text>
<text x="350.0" y="34" text-anchor="middle" class="t" font-size="12" fill="var(--color-text-tertiary)">leader · Δpp</text>
<text x="408" y="34" text-anchor="start" class="th" font-size="15" fill="#A32D2D">Databricks</text>
<text x="292" y="52" text-anchor="end" class="t" font-size="11" fill="var(--color-text-tertiary)">537 sessions</text>
<text x="408" y="52" text-anchor="start" class="t" font-size="11" fill="var(--color-text-tertiary)">802 sessions</text>
<text x="350.0" y="74" text-anchor="middle" class="t" font-size="11" fill="var(--color-text-secondary)">agenda share (% of each catalog) · captured 2026-06-13</text>
<line x1="350.0" y1="84" x2="350.0" y2="562" stroke="var(--color-border-tertiary)" stroke-width="1"/>
<text x="350.0" y="90" text-anchor="middle" font-size="12.5" fill="var(--color-text-primary)">1. Cortex / GenAI app layer</text>
<rect x="28.3" y="100" width="271.7" height="15" rx="2" fill="#185FA5"/>
<text x="23.3" y="112" text-anchor="end" font-size="11" fill="#185FA5">68.9%</text>
<rect x="400" y="100" width="203.5" height="15" rx="2" fill="#A32D2D"/>
<text x="608.5" y="112" text-anchor="start" font-size="11" fill="#A32D2D">51.6%</text>
<text x="350.0" y="112" text-anchor="middle" font-size="10.5" font-weight="500" fill="#185FA5">SNOW +17.3</text>
<text x="350.0" y="136" text-anchor="middle" font-size="12.5" fill="var(--color-text-primary)">2. Semantic context for agents</text>
<rect x="217.2" y="146" width="82.8" height="15" rx="2" fill="#185FA5"/>
<text x="212.2" y="158" text-anchor="end" font-size="11" fill="#185FA5">21.0%</text>
<rect x="400" y="146" width="16.6" height="15" rx="2" fill="#A32D2D"/>
<text x="421.6" y="158" text-anchor="start" font-size="11" fill="#A32D2D">4.2%</text>
<text x="350.0" y="158" text-anchor="middle" font-size="10.5" font-weight="500" fill="#185FA5">SNOW +16.8</text>
<text x="350.0" y="182" text-anchor="middle" font-size="12.5" fill="var(--color-text-primary)">3. Sharing / marketplace / clean rooms</text>
<rect x="228.6" y="192" width="71.4" height="15" rx="2" fill="#185FA5"/>
<text x="223.6" y="204" text-anchor="end" font-size="11" fill="#185FA5">18.1%</text>
<rect x="400" y="192" width="54.0" height="15" rx="2" fill="#A32D2D"/>
<text x="459.0" y="204" text-anchor="start" font-size="11" fill="#A32D2D">13.7%</text>
<text x="350.0" y="204" text-anchor="middle" font-size="10.5" font-weight="500" fill="#185FA5">SNOW +4.3</text>
<text x="350.0" y="228" text-anchor="middle" font-size="12.5" fill="var(--color-text-primary)">4. Open lakehouse / table formats</text>
<rect x="260.2" y="238" width="39.8" height="15" rx="2" fill="#185FA5"/>
<text x="255.2" y="250" text-anchor="end" font-size="11" fill="#185FA5">10.1%</text>
<rect x="400" y="238" width="56.0" height="15" rx="2" fill="#A32D2D"/>
<text x="461.0" y="250" text-anchor="start" font-size="11" fill="#A32D2D">14.2%</text>
<text x="350.0" y="250" text-anchor="middle" font-size="10.5" font-weight="500" fill="#A32D2D">DBX +4.2</text>
<text x="350.0" y="274" text-anchor="middle" font-size="12.5" fill="var(--color-text-primary)">5. Unity Catalog vs Horizon control plane</text>
<rect x="249.9" y="284" width="50.1" height="15" rx="2" fill="#185FA5"/>
<text x="244.9" y="296" text-anchor="end" font-size="11" fill="#185FA5">12.7%</text>
<rect x="400" y="284" width="221.2" height="15" rx="2" fill="#A32D2D"/>
<text x="626.2" y="296" text-anchor="start" font-size="11" fill="#A32D2D">56.1%</text>
<text x="350.0" y="296" text-anchor="middle" font-size="10.5" font-weight="500" fill="#A32D2D">DBX +43.4</text>
<text x="350.0" y="320" text-anchor="middle" font-size="12.5" fill="var(--color-text-primary)">6. BI dashboards / metrics / AI-BI</text>
<rect x="242.0" y="330" width="58.0" height="15" rx="2" fill="#185FA5"/>
<text x="237.0" y="342" text-anchor="end" font-size="11" fill="#185FA5">14.7%</text>
<rect x="400" y="330" width="146.7" height="15" rx="2" fill="#A32D2D"/>
<text x="551.7" y="342" text-anchor="start" font-size="11" fill="#A32D2D">37.2%</text>
<text x="350.0" y="342" text-anchor="middle" font-size="10.5" font-weight="500" fill="#A32D2D">DBX +22.4</text>
<text x="350.0" y="366" text-anchor="middle" font-size="12.5" fill="var(--color-text-primary)">7. App / operational database substrate</text>
<rect x="232.6" y="376" width="67.4" height="15" rx="2" fill="#185FA5"/>
<text x="227.6" y="388" text-anchor="end" font-size="11" fill="#185FA5">17.1%</text>
<rect x="400" y="376" width="101.3" height="15" rx="2" fill="#A32D2D"/>
<text x="506.3" y="388" text-anchor="start" font-size="11" fill="#A32D2D">25.7%</text>
<text x="350.0" y="388" text-anchor="middle" font-size="10.5" font-weight="500" fill="#A32D2D">DBX +8.6</text>
<text x="350.0" y="412" text-anchor="middle" font-size="12.5" fill="var(--color-text-primary)">8. Evals / red teaming / AI quality (strict)</text>
<rect x="283.0" y="422" width="17.0" height="15" rx="2" fill="#185FA5"/>
<text x="278.0" y="434" text-anchor="end" font-size="11" fill="#185FA5">4.3%</text>
<rect x="400" y="422" width="44.2" height="15" rx="2" fill="#A32D2D"/>
<text x="449.2" y="434" text-anchor="start" font-size="11" fill="#A32D2D">11.2%</text>
<text x="350.0" y="434" text-anchor="middle" font-size="10.5" font-weight="500" fill="#A32D2D">DBX +6.9</text>
<text x="350.0" y="458" text-anchor="middle" font-size="12.5" fill="var(--color-text-primary)">9. Lakeflow / Spark / streaming pipelines</text>
<rect x="157.7" y="468" width="142.3" height="15" rx="2" fill="#185FA5"/>
<text x="152.7" y="480" text-anchor="end" font-size="11" fill="#185FA5">36.1%</text>
<rect x="400" y="468" width="137.2" height="15" rx="2" fill="#A32D2D"/>
<text x="542.2" y="480" text-anchor="start" font-size="11" fill="#A32D2D">34.8%</text>
<text x="350.0" y="480" text-anchor="middle" font-size="10.5" font-weight="500" fill="#185FA5">SNOW +1.3</text>
<text x="350.0" y="504" text-anchor="middle" font-size="12.5" fill="var(--color-text-primary)">10. SQL warehouse / lakehouse modernization</text>
<rect x="153.3" y="514" width="146.7" height="15" rx="2" fill="#185FA5"/>
<text x="148.3" y="526" text-anchor="end" font-size="11" fill="#185FA5">37.2%</text>
<rect x="400" y="514" width="170.7" height="15" rx="2" fill="#A32D2D"/>
<text x="575.7" y="526" text-anchor="start" font-size="11" fill="#A32D2D">43.3%</text>
<text x="350.0" y="526" text-anchor="middle" font-size="10.5" font-weight="500" fill="#A32D2D">DBX +6.0</text>
</svg>